<?xml version="1.0" encoding="utf-8"?>
<!-- Generator: Adobe Illustrator 25.1.0, SVG Export Plug-In . SVG Version: 6.00 Build 0)  -->
<svg version="1.1" id="Layer_1" xmlns="http://www.w3.org/2000/svg" xmlns:xlink="http://www.w3.org/1999/xlink" x="0px" y="0px"
	 viewBox="0 0 375.4 98.8" style="enable-background:new 0 0 375.4 98.8;" xml:space="preserve">
<style type="text/css">
	.st0{enable-background:new    ;}
	.st1{fill:#3F3F3F;}
	.st2{fill:#DCFFF8;}
</style>
<g class="st0">
	<path class="st1" d="M143.7,25.6c3.2,0,6.1,1,8.8,2.9c5.8,3.9,8.8,10.4,8.8,19.4c0,1.6-0.1,3.2-0.2,4.6c-1,6.8-3.9,11.9-8.6,15
		c-2.5,1.6-5.6,2.7-9.3,3c-2.7,0-5.4-0.6-8.2-1.9v14.5c0,1.9-0.8,3.4-2.3,4.4c-1.8,1-3.6,1-5.3,0c-1.5-1-2.3-2.5-2.3-4.4V46.2
		c0-2.3,0.3-4.4,0.8-6.5c1.3-6,4.1-10.1,8.4-12.4c2.8-1.5,5.8-2.2,8.9-1.9h0.6V25.6z M135.5,56.1c0.9,2.3,3.4,3.7,7.6,4.4
		c1.3,0,2.5-0.4,3.8-1.3c2.8-2,4.2-5.8,4.2-11.2c0-6.2-2-10.2-5.9-12l-2.1-0.4c-0.1,0-0.3,0-0.6,0c-1.3-0.1-2.5,0.1-3.6,0.8
		c-2.7,1.3-4,4.6-4,9.9v6.1C134.9,53.8,135.1,55.1,135.5,56.1z"/>
	<path class="st1" d="M183.8,25.1c3.7,0,6.8,0.7,9.5,2.1c4.3,2.4,6.2,5.1,5.5,8.2c-0.3,1.9-1.5,3.2-3.6,3.8
		c-1.9,0.5-3.5,0.1-4.8-1.3c-1.8-2.7-4.6-3.7-8.6-3.2c-0.3,0-0.4,0.1-0.6,0.2c-2.2,0.3-3.6,1.3-4.4,3.2c-0.4,1-0.3,2.1,0.4,3.2
		c1.5,1,4,1.5,7.4,1.3c2,0,3.6,0.1,4.6,0.4c4.1,0.4,7.4,2.4,9.9,6.1c1.6,2.3,2.4,4.8,2.3,7.4c0.1,4.1-1.5,7.4-4.9,10.1
		c-1.4,1-2.9,1.8-4.4,2.3c-6.7,2.2-12.7,2.2-17.9,0c-4.2-2-6.7-4.4-7.4-7.2c-0.5-2.2,0.3-3.9,2.5-5.1c2-1.3,3.9-1.2,5.5,0.2
		c0.3,0.1,0.4,0.3,0.6,0.4c2.2,2.8,6,3.7,11.4,2.9c2.2-0.1,3.6-1,4.4-2.5c0.5-0.9,0.5-1.8,0-2.9c-1.1-1.3-3.2-1.9-6.1-1.9
		c-6.3,0.3-11-1-13.9-3.8c-3.2-2.7-4.6-6.2-4.4-10.5c0-2.8,0.8-5.3,2.5-7.4c2.9-4.1,7.6-6,14.1-5.9H183.8z"/>
	<path class="st1" d="M245.4,30.4v37.3c0,7.6-1.7,13-4.9,16.2c-2.7,2.8-7,4.2-13.1,4.2c-5.8,0.8-11.2-0.3-16-3.2
		c-1.7-1-2.5-2.5-2.5-4.4c0-2,0.9-3.5,2.7-4.4c1.6-1,3.3-1,4.9,0.2c2,1.1,5.5,1.7,10.3,1.7h0.4c3.3,0,5.4-0.4,6.3-1.3
		c1.1-1,1.7-3.7,1.7-8c-3.6,1.8-7.4,2.3-11.4,1.5c-8.1-2.2-12.9-8-14.5-17.5c-0.3-1.5-0.4-3.1-0.4-4.8V30.4c0-2.3,1-3.9,3-4.8
		c0.5-0.3,1.1-0.4,1.9-0.4c1.5,0,2.8,0.5,3.8,1.5c1,1,1.5,2.2,1.5,3.6v17.5c0,5.5,1.4,9.2,4.2,11.2c1.3,0.9,2.5,1.3,3.8,1.3
		c1.6-0.1,3-0.6,4.2-1.3c1.8-0.8,2.9-1.8,3.4-3c0.3-1,0.4-2.3,0.4-3.8V30.4c0-1.9,0.9-3.4,2.7-4.6c1.8-0.9,3.4-0.9,4.9,0
		C244.6,27,245.4,28.5,245.4,30.4z"/>
</g>
<g class="st0">
	<path class="st1" d="M255.1,24.5c2.2-0.1,3.7,0.8,4.8,2.7l0.4,0.8c2.8,12,5.3,20.9,7.6,26.4l1.5,3c0.3,0.4,0.5,0.2,0.8-0.6
		c2.8-6,5.8-15,8.9-27c0.3-2.5,1.4-4.2,3.4-4.9l0.8-0.4c2.2-0.5,4,0.2,5.5,2.1c1,1.1,1.4,2.4,1.1,3.8c-1.4,6.2-3.3,13-5.7,20.4
		c-2.5,7-4.6,11.7-6.3,14.3c-0.5,0.8-1,1.5-1.5,2.1c-1.8,2.4-4.1,3.6-7,3.4c-0.6,0-1.3-0.1-1.9-0.4c-3.2-1-6-4.1-8.4-9.1
		c-0.3-0.4-0.4-0.8-0.6-1.3c-3-7.1-5.9-16.7-8.6-28.7c-0.5-2.2,0.2-4,2.1-5.5C253,24.7,254,24.4,255.1,24.5z"/>
</g>
<g class="st0">
	<path class="st1" d="M320.9,58.9c1.5-1.3,3.2-1.6,5.1-1c1.6,0.8,2.6,2.2,2.9,4.2c0.4,1.9-0.3,3.4-1.9,4.6c-1.8,1.5-4,2.6-6.7,3.2
		c-1.9,0.4-5.1,0.5-9.5,0.4c-3.2,0-6.3-1.1-9.3-3.2c-5.6-4.1-8.6-10.2-8.9-18.5c-0.1-0.6-0.1-1.3,0-2.1c0.4-8.6,3.4-14.8,8.9-18.5
		c3-2.2,6.5-3.2,10.5-3.2c2.9,0,5.5,0.6,7.8,1.9c6.1,3.8,9.1,10.1,9.1,19v1.9c0,0.6-0.1,1.3-0.4,1.9c-0.8,2-2.3,3-4.6,3h-20.7
		c0.9,4.3,3.4,6.8,7.6,7.4h1.7C317,60.1,319.8,59.7,320.9,58.9z M311.4,35.2h-0.6c-1.1,0-2.4,0.4-3.8,1.1c-2,1.4-3.3,3.5-3.8,6.3
		h15.6v-0.4c-0.5-3.2-1.8-5.3-3.8-6.3c-0.9-0.5-2-0.8-3.2-0.8H311.4z"/>
</g>
<g class="st0">
	<path class="st1" d="M372.3,30.4v37.3c0,7.6-1.7,13-4.9,16.2c-2.7,2.8-7,4.2-13.1,4.2c-5.8,0.8-11.2-0.3-16-3.2
		c-1.7-1-2.5-2.5-2.5-4.4c0-2,0.9-3.5,2.7-4.4c1.6-1,3.3-1,4.9,0.2c2,1.1,5.5,1.7,10.3,1.7h0.4c3.3,0,5.4-0.4,6.3-1.3
		c1.1-1,1.7-3.7,1.7-8c-3.6,1.8-7.4,2.3-11.4,1.5c-8.1-2.2-12.9-8-14.5-17.5c-0.3-1.5-0.4-3.1-0.4-4.8V30.4c0-2.3,1-3.9,3-4.8
		c0.5-0.3,1.1-0.4,1.9-0.4c1.5,0,2.8,0.5,3.8,1.5c1,1,1.5,2.2,1.5,3.6v17.5c0,5.5,1.4,9.2,4.2,11.2c1.3,0.9,2.5,1.3,3.8,1.3
		c1.6-0.1,3-0.6,4.2-1.3c1.8-0.8,2.9-1.8,3.4-3c0.3-1,0.4-2.3,0.4-3.8V30.4c0-1.9,0.9-3.4,2.7-4.6c1.8-0.9,3.4-0.9,4.9,0
		C371.5,27,372.3,28.5,372.3,30.4z"/>
</g>
<g>
	<path class="st2" d="M97,55.5c1.8,2.7,3.6,4.4,4.4,10.7C103.2,78.8,96.1,91.9,81,91c-4.4,8-13.8,7.7-22.7,7.7c-2,0-3.5-1.6-3.5-3.5
		V3.5c0-2,1.6-3.5,3.5-3.5c11-0.4,19.4,8.9,19.4,16.3c9.8,0.9,16.7,8.9,20.3,20.5C99,40.3,100.5,50.1,97,55.5L97,55.5z"/>
	<path class="st2" d="M38.7,9.1v81.3c-6.8-0.2-9.4-1.1-10.7-3.4c-1.5-2.6-4.2-4.3-7.2-4.3c-0.2,0-0.3,0-0.5,0c-0.3,0-0.6,0-0.9,0
		c-3.4,0-5.9-1.1-7.9-3.3c-2.5-2.9-3.6-7.5-3-12.2c0.5-3.4,1.1-4.3,2.3-6.1c0.3-0.4,0.5-0.8,0.8-1.2c1.9-2.8,1.9-6.4,0-9.2
		c-1.2-1.8-1-8.1,0.1-11.6c1.6-5.2,5.4-13.9,13.1-14.6c4.3-0.4,7.5-4,7.5-8.3C32.4,14.5,34.8,10.8,38.7,9.1 M42.8,0
		C32.1,0,24.1,9,24.1,16.3c-9.8,0.9-16.7,8.9-20.3,20.5c-1.1,3.5-2.7,13.3,0.9,18.7c-1.8,2.7-3.6,4.4-4.4,10.7
		c-1.7,12.2,4.9,25,19,25c0.5,0,0.9,0,1.4,0c4.1,7.4,12.4,7.7,20.7,7.7c0.7,0,1.4,0,2.1,0c2,0,3.5-1.6,3.5-3.5V3.5
		c0-2-1.6-3.5-3.5-3.5C43.3,0,43,0,42.8,0L42.8,0z"/>
	<g>
		<path class="st2" d="M4.9,78.7c-1.9,0-3.6-1.3-4-3.3C0.3,72.6-0.3,67,2.3,61.1c4-9,12.4-12.1,14.8-12.8c2.2-0.7,4.5,0.6,5.2,2.8
			c0.7,2.2-0.6,4.5-2.8,5.2c-1.1,0.3-7,2.4-9.6,8.2c-1.7,3.8-1.3,7.3-0.9,9.1c0.5,2.2-0.9,4.4-3.2,4.9C5.5,78.7,5.2,78.7,4.9,78.7z"
			/>
	</g>
	<g>
		<path class="st2" d="M28,96.5c-0.9,0-1.7-0.3-2.5-0.8c-2-1.5-4.8-4.2-6.2-8.4C16,77.9,22.3,69.9,23,69c1.5-1.8,4.1-2,5.8-0.6
			c1.8,1.5,2,4.1,0.6,5.8c0,0.1-4.1,5.1-2.3,10.3c0.8,2.2,2.3,3.6,3.4,4.5c1.8,1.4,2.2,4,0.8,5.8C30.5,96,29.3,96.5,28,96.5z"/>
	</g>
	<g>
		<path class="st2" d="M22.8,61.4c-1.1,0-2.2-0.4-3-1.3c-2.2-2.3-3.7-5.2-4.1-8.3c-0.5-3.5,0.3-6.5,1-8.3c0.9-2.1,3.3-3.1,5.4-2.2
			c2.1,0.9,3.1,3.3,2.2,5.4c-0.4,0.8-0.7,2.2-0.5,3.8c0.3,1.9,1.3,3.2,1.9,3.8c1.6,1.6,1.6,4.3-0.1,5.9
			C24.9,61.1,23.9,61.4,22.8,61.4z"/>
	</g>
	<g>
		<path class="st2" d="M30.8,29.3c-1.3,0-2.5-0.6-3.4-1.7c-1.1-1.5-1.9-3.2-2.5-4.9c-1.3-4.3-0.6-8,0-9.9c1.4-4.6,4.5-7.4,6.2-8.6
			c1.8-1.3,4.4-0.9,5.8,0.9c1.4,1.8,0.9,4.4-0.9,5.8c-0.9,0.6-2.4,2-3.1,4.4c-0.2,0.7-0.7,2.7,0,5c0.3,0.9,0.7,1.7,1.2,2.5
			c1.3,1.9,0.9,4.4-0.9,5.8C32.5,29,31.6,29.3,30.8,29.3z"/>
	</g>
</g>
</svg>
